<svg width="15" height="14" viewBox="0 0 15 14" fill="none" xmlns="http://www.w3.org/2000/svg">
<path d="M6.05584 7.72229C6.05584 6.92453 6.70251 6.27786 7.50026 6.27786C8.29802 6.27786 8.94469 6.92453 8.94469 7.72229C8.94469 8.52004 8.29802 9.16671 7.50026 9.16671C6.70251 9.16671 6.05584 8.52004 6.05584 7.72229Z" fill="white"/>
<path fill-rule="evenodd" clip-rule="evenodd" d="M14.7221 5.27077L14.7222 5.1974C14.7225 4.86463 14.7227 4.57709 14.6611 4.32304C14.47 3.53454 13.8544 2.91889 13.0658 2.72776C12.8117 2.66615 12.5246 2.66642 12.1915 2.66674L12.1182 2.66679C11.8681 2.66679 11.8177 2.66491 11.7771 2.65881C11.6123 2.63412 11.4612 2.55323 11.3492 2.42984C11.3216 2.39939 11.2921 2.35853 11.1534 2.15045L10.9898 1.90508L10.9407 1.83124C10.704 1.47523 10.4951 1.16105 10.1989 0.937456C10.0196 0.802171 9.82044 0.69558 9.60847 0.621488C9.25806 0.499008 8.88092 0.499506 8.45337 0.500077H6.54666C6.11911 0.499506 5.74196 0.499008 5.39153 0.621488C5.17955 0.69558 4.98037 0.802171 4.80114 0.937456C4.50485 1.16109 4.29607 1.47516 4.05936 1.83124L3.84666 2.15045C3.70793 2.35853 3.67843 2.39939 3.65081 2.42984C3.53886 2.55323 3.38772 2.63412 3.22297 2.65881C3.1823 2.66491 3.13195 2.66679 2.88185 2.66679L2.80848 2.66674C2.47545 2.66642 2.18834 2.66615 1.93414 2.72776C1.14563 2.91889 0.529977 3.53454 0.338851 4.32304C0.277239 4.57725 0.277513 4.86436 0.277831 5.19739L0.277882 9.93646C0.277846 10.5766 0.277814 11.1284 0.337204 11.5701C0.400853 12.0435 0.544392 12.4973 0.912475 12.8654C1.28056 13.2335 1.73436 13.377 2.20778 13.4406C2.64899 13.5 3.19982 13.5 3.83905 13.5H11.1609C11.8002 13.5 12.351 13.5 12.7922 13.4406C13.2656 13.377 13.7195 13.2335 14.0876 12.8654C14.4556 12.4973 14.5992 12.0435 14.6628 11.5701C14.7222 11.1283 14.7222 10.5767 14.7221 9.93646V5.27077ZM7.50012 4.83345C5.90463 4.83345 4.61125 6.12686 4.61125 7.7223C4.61125 9.31774 5.90463 10.6112 7.50012 10.6112C9.09556 10.6112 10.389 9.31774 10.389 7.7223C10.389 6.12686 9.09556 4.83345 7.50012 4.83345Z" fill="white"/>
</svg>
