<svg width="15" height="15" viewBox="0 0 15 15" fill="none" xmlns="http://www.w3.org/2000/svg">
<path fill-rule="evenodd" clip-rule="evenodd" d="M11 1.375C12.933 1.375 14.5 2.942 14.5 4.875V10.125C14.5 12.058 12.933 13.625 11 13.625H4C2.067 13.625 0.5 12.058 0.5 10.125V4.875C0.5 2.942 2.067 1.375 4 1.375H11ZM12.7353 5.75746C12.5633 5.58777 12.2863 5.58963 12.1166 5.76163L8.58821 9.33794L5.39023 6.13995L5.34359 6.09734C5.05579 5.85741 4.62951 5.90013 4.36122 6.16842L2.10573 8.42392L2.07173 8.46207C1.93575 8.6338 1.94708 8.88398 2.10573 9.04263L2.14389 9.07663C2.31561 9.21262 2.5658 9.20128 2.72445 9.04263L4.89018 6.87685L9.22099 11.2081L9.25915 11.2421C9.43088 11.3781 9.68106 11.3668 9.83971 11.2081C10.0106 11.0373 10.0106 10.7603 9.83971 10.5894L9.20684 9.95656L12.7395 6.37617L12.7732 6.33778C12.908 6.16514 12.895 5.91504 12.7353 5.75746ZM8.6375 3.5625C7.671 3.5625 6.8875 4.346 6.8875 5.3125C6.8875 6.279 7.671 7.0625 8.6375 7.0625C9.604 7.0625 10.3875 6.279 10.3875 5.3125C10.3875 4.346 9.604 3.5625 8.6375 3.5625ZM8.6375 4.4375C9.12075 4.4375 9.5125 4.82925 9.5125 5.3125C9.5125 5.79575 9.12075 6.1875 8.6375 6.1875C8.15425 6.1875 7.7625 5.79575 7.7625 5.3125C7.7625 4.82925 8.15425 4.4375 8.6375 4.4375Z" fill="currentColor"/>
</svg>
