<svg width="9" height="10" viewBox="0 0 9 10" fill="none" xmlns="http://www.w3.org/2000/svg">
<path fill-rule="evenodd" clip-rule="evenodd" d="M1.4625 4.24318V3.25301C1.4625 1.45642 2.82244 0 4.5 0C6.17755 0 7.5375 1.45642 7.5375 3.25301V4.24318C8.03916 4.28333 8.36581 4.38458 8.60458 4.64034C9 5.06381 9 5.74535 9 7.10843C9 8.47152 9 9.15306 8.60458 9.57653C8.20917 10 7.57278 10 6.3 10H2.7C1.42721 10 0.790812 10 0.395406 9.57653C0 9.15306 0 8.47152 0 7.10843C0 5.74535 0 5.06381 0.395406 4.64034C0.634189 4.38458 0.960862 4.28333 1.4625 4.24318ZM2.1375 3.25301C2.1375 1.85567 3.19523 0.722892 4.5 0.722892C5.80477 0.722892 6.8625 1.85567 6.8625 3.25301V4.2186C6.69015 4.21687 6.50317 4.21687 6.3 4.21687H2.7C2.49682 4.21687 2.30985 4.21687 2.1375 4.2186V3.25301ZM5.4 7.10843C5.4 7.64077 4.99707 8.07229 4.5 8.07229C4.00293 8.07229 3.6 7.64077 3.6 7.10843C3.6 6.5761 4.00293 6.14458 4.5 6.14458C4.99707 6.14458 5.4 6.5761 5.4 7.10843Z" fill="#FFFF00"/>
</svg>
