<svg width="current" height="current" viewBox="0 0 17 16" fill="none" xmlns="http://www.w3.org/2000/svg">
<path fill-rule="evenodd" clip-rule="evenodd" d="M13.772 0.554946C12.9609 -0.508867 11.24 0.055418 11.24 1.38517V2.72041C8.61606 2.68936 6.82113 3.5913 5.62553 4.85087C4.34741 6.19736 3.82172 7.88075 3.60143 9.0318C3.49129 9.60726 3.86877 10.0248 4.26549 10.169C4.64449 10.3067 5.15092 10.2478 5.48888 9.86143C6.4481 8.76505 8.31167 7.23482 11.24 7.33471V9.0462C11.24 10.376 12.9609 10.9402 13.772 9.87638L16.3762 6.46101C16.9388 5.72304 16.9388 4.70832 16.3762 3.97034L13.772 0.554946ZM5.30848 8.07419C6.56416 6.97836 8.36662 5.94999 11.24 5.94999H11.9435C12.332 5.94999 12.6468 6.25977 12.6468 6.64189L12.6467 9.0462L15.2508 5.63079C15.4384 5.38479 15.4384 5.04656 15.2508 4.80056L12.6467 1.38517V3.41229C12.6467 3.79439 12.3318 4.10414 11.9433 4.10414H11.24C8.07503 4.10414 6.65371 5.7952 6.65371 5.7952C5.99936 6.48455 5.57825 7.30383 5.30848 8.07419Z" fill="#4C4C4C"/>
<path d="M4.97332 0.697144H2.88656C1.73408 0.697144 0.799805 1.63141 0.799805 2.7839V13.9133C0.799805 15.0658 1.73408 16 2.88656 16H14.0159C15.1685 16 16.1027 15.0658 16.1027 13.9133V11.8265C16.1027 11.4423 15.7913 11.1309 15.4071 11.1309C15.0229 11.1309 14.7115 11.4423 14.7115 11.8265V13.9133C14.7115 14.2975 14.4001 14.6089 14.0159 14.6089H2.88656C2.50241 14.6089 2.19098 14.2975 2.19098 13.9133V2.7839C2.19098 2.39974 2.50241 2.08832 2.88656 2.08832H4.97332C5.35748 2.08832 5.66891 1.77689 5.66891 1.39273C5.66891 1.00856 5.35748 0.697144 4.97332 0.697144Z" fill="#4C4C4C"/>
</svg>
