<svg width="10" height="18" viewBox="0 0 10 18" fill="none" xmlns="http://www.w3.org/2000/svg">
<path d="M2.84615 9.0197L9.65385 15.9912C9.88461 16.2276 9.99362 16.5033 9.98077 16.8184C9.96792 17.1335 9.84615 17.4092 9.61539 17.6455C9.38462 17.8818 9.109 18 8.78846 18C8.46792 18 8.19231 17.8818 7.96154 17.6455L0.346154 9.84683C0.217924 9.71551 0.128231 9.58427 0.0769234 9.45296C0.0256157 9.32164 0 9.17724 0 9.0197C0 8.86215 0.0256157 8.71775 0.0769234 8.58643C0.128231 8.45512 0.217924 8.32388 0.346154 8.19256L8 0.354486C8.23077 0.118162 8.50638 0 8.82692 0C9.14746 0 9.42308 0.118162 9.65385 0.354486C9.88461 0.59081 10 0.873059 10 1.20131C10 1.52957 9.88461 1.81182 9.65385 2.04814L2.84615 9.0197Z" fill="#CECECE"/>
</svg>
