<svg width="34" height="31" viewBox="0 0 34 31" fill="none" xmlns="http://www.w3.org/2000/svg">
<path d="M0.151262 17.7456C1.30351 24.8019 9.03316 29.2611 12.754 30.6087C8.14445 27.0817 12.3137 24.0898 14.2344 23.1087C15.6134 22.4043 33.7344 19.1085 31.7344 8.60933C29.5046 -3.09603 13.8348 -0.628119 7.71288 3.04489C4.71224 5.00499 -1.00098 10.6893 0.151262 17.7456Z" fill="#4B5E61"/>
<path d="M0.151262 17.7456C1.30351 24.8019 9.03316 29.2611 12.754 30.6087C8.14445 27.0817 12.3137 24.0898 14.2344 23.1087C15.6134 22.4043 33.7344 19.1085 31.7344 8.60933C29.5046 -3.09603 13.8348 -0.628119 7.71288 3.04489C4.71224 5.00499 -1.00098 10.6893 0.151262 17.7456Z" fill="#FF9191"/>
<path d="M8.992 11.6414C10.024 11.5294 11.056 10.9694 11.208 10.1934H9.232C8.752 10.1934 8.56 9.86537 8.56 9.53737C8.56 9.21737 8.744 8.87337 9.232 8.87337H14.768C15.256 8.87337 15.44 9.21737 15.44 9.53737C15.44 9.86537 15.248 10.1934 14.768 10.1934H12.824C12.808 10.3454 12.776 10.4894 12.736 10.6254C14.24 10.5374 15.464 11.3694 15.592 12.9454H14.008C13.784 12.1134 12.952 11.6494 12.048 11.7534C11.32 12.4974 10.2 12.9534 9.208 12.9534C8.72 12.9534 8.408 12.6814 8.408 12.2574C8.408 11.9294 8.648 11.6734 8.992 11.6414ZM8.928 13.2254H15.072C15.552 13.2254 15.744 13.5534 15.744 13.8814C15.744 14.2174 15.544 14.5374 15.072 14.5374H12.816V16.2574H11.184V14.5374H8.928C8.456 14.5374 8.256 14.2174 8.256 13.8814C8.256 13.5534 8.448 13.2254 8.928 13.2254ZM23.52 16.2174H21.92V9.49737C21.92 8.97737 22.296 8.70537 22.72 8.70537C23.144 8.70537 23.52 8.97737 23.52 9.49737V16.2174ZM16.456 11.6334V10.8654C16.456 9.47337 17.48 8.84137 18.792 8.84137C20.104 8.84137 21.12 9.47337 21.12 10.8654V11.6334C21.12 13.0254 20.104 13.6574 18.792 13.6574C17.48 13.6574 16.456 13.0254 16.456 11.6334ZM18.024 10.8094V11.6894C18.024 12.2094 18.408 12.4014 18.792 12.4014C19.176 12.4014 19.56 12.2094 19.56 11.6894V10.8094C19.56 10.2974 19.176 10.0974 18.792 10.0974C18.408 10.0974 18.024 10.2974 18.024 10.8094ZM16.944 14.5854H20.952C21.448 14.5854 21.64 14.9374 21.64 15.2654C21.64 15.6014 21.44 15.9374 20.952 15.9374H16.944C16.456 15.9374 16.256 15.6014 16.256 15.2654C16.256 14.9374 16.448 14.5854 16.944 14.5854Z" fill="white"/>
</svg>
