<svg width="24" height="24" viewBox="0 0 24 24" fill="none" xmlns="http://www.w3.org/2000/svg">
<path d="M23.5 22.0397V9.62698C23.5 9.40028 23.448 9.17668 23.3482 8.97391C23.2484 8.77114 23.1035 8.59475 22.925 8.45873L12.8625 0.792064C12.6137 0.602482 12.311 0.5 12 0.5C11.689 0.5 11.3863 0.602482 11.1375 0.792064L1.075 8.45873C0.896468 8.59475 0.751563 8.77114 0.651761 8.97391C0.551959 9.17668 0.5 9.40028 0.5 9.62698V22.0397C0.5 22.427 0.65145 22.7984 0.921034 23.0723C1.19062 23.3461 1.55625 23.5 1.9375 23.5H7.6875C7.87628 23.5 8.0632 23.4622 8.23761 23.3888C8.41201 23.3155 8.57048 23.2079 8.70397 23.0723C8.83745 22.9367 8.94334 22.7757 9.01558 22.5985C9.08782 22.4213 9.125 22.2315 9.125 22.0397V17.6587C9.125 17.2714 9.27645 16.9 9.54603 16.6261C9.81562 16.3523 10.1813 16.1984 10.5625 16.1984H13.4375C13.8187 16.1984 14.1844 16.3523 14.454 16.6261C14.7235 16.9 14.875 17.2714 14.875 17.6587V22.0397C14.875 22.427 15.0265 22.7984 15.296 23.0723C15.5656 23.3461 15.9313 23.5 16.3125 23.5H22.0625C22.4437 23.5 22.8094 23.3461 23.079 23.0723C23.3486 22.7984 23.5 22.427 23.5 22.0397Z" fill="white"/>
<path d="M23.5 22.0397V9.62698C23.5 9.40028 23.448 9.17668 23.3482 8.97391C23.2484 8.77114 23.1035 8.59475 22.925 8.45873L12.8625 0.792064C12.6137 0.602482 12.311 0.5 12 0.5C11.689 0.5 11.3863 0.602482 11.1375 0.792064L1.075 8.45873C0.896468 8.59475 0.751563 8.77114 0.651761 8.97391C0.551959 9.17668 0.5 9.40028 0.5 9.62698V22.0397C0.5 22.427 0.65145 22.7984 0.921034 23.0723C1.19062 23.3461 1.55625 23.5 1.9375 23.5H7.6875C7.87628 23.5 8.0632 23.4622 8.23761 23.3888C8.41201 23.3155 8.57048 23.2079 8.70397 23.0723C8.83745 22.9367 8.94334 22.7757 9.01558 22.5985C9.08782 22.4213 9.125 22.2315 9.125 22.0397V17.6587C9.125 17.2714 9.27645 16.9 9.54603 16.6261C9.81562 16.3523 10.1813 16.1984 10.5625 16.1984H13.4375C13.8187 16.1984 14.1844 16.3523 14.454 16.6261C14.7235 16.9 14.875 17.2714 14.875 17.6587V22.0397C14.875 22.427 15.0265 22.7984 15.296 23.0723C15.5656 23.3461 15.9313 23.5 16.3125 23.5H22.0625C22.4437 23.5 22.8094 23.3461 23.079 23.0723C23.3486 22.7984 23.5 22.427 23.5 22.0397Z" fill="#4B5E61"/>
<path d="M23.5 22.0397V9.62698C23.5 9.40028 23.448 9.17668 23.3482 8.97391C23.2484 8.77114 23.1035 8.59475 22.925 8.45873L12.8625 0.792064C12.6137 0.602482 12.311 0.5 12 0.5C11.689 0.5 11.3863 0.602482 11.1375 0.792064L1.075 8.45873C0.896468 8.59475 0.751563 8.77114 0.651761 8.97391C0.551959 9.17668 0.5 9.40028 0.5 9.62698V22.0397C0.5 22.427 0.65145 22.7984 0.921034 23.0723C1.19062 23.3461 1.55625 23.5 1.9375 23.5H7.6875C7.87628 23.5 8.0632 23.4622 8.23761 23.3888C8.41201 23.3155 8.57048 23.2079 8.70397 23.0723C8.83745 22.9367 8.94334 22.7757 9.01558 22.5985C9.08782 22.4213 9.125 22.2315 9.125 22.0397V17.6587C9.125 17.2714 9.27645 16.9 9.54603 16.6261C9.81562 16.3523 10.1813 16.1984 10.5625 16.1984H13.4375C13.8187 16.1984 14.1844 16.3523 14.454 16.6261C14.7235 16.9 14.875 17.2714 14.875 17.6587V22.0397C14.875 22.427 15.0265 22.7984 15.296 23.0723C15.5656 23.3461 15.9313 23.5 16.3125 23.5H22.0625C22.4437 23.5 22.8094 23.3461 23.079 23.0723C23.3486 22.7984 23.5 22.427 23.5 22.0397Z" fill="#C1D1D5"/>
<path d="M23.5 22.0397V9.62698C23.5 9.40028 23.448 9.17668 23.3482 8.97391C23.2484 8.77114 23.1035 8.59475 22.925 8.45873L12.8625 0.792064C12.6137 0.602482 12.311 0.5 12 0.5C11.689 0.5 11.3863 0.602482 11.1375 0.792064L1.075 8.45873C0.896468 8.59475 0.751563 8.77114 0.651761 8.97391C0.551959 9.17668 0.5 9.40028 0.5 9.62698V22.0397C0.5 22.427 0.65145 22.7984 0.921034 23.0723C1.19062 23.3461 1.55625 23.5 1.9375 23.5H7.6875C7.87628 23.5 8.0632 23.4622 8.23761 23.3888C8.41201 23.3155 8.57048 23.2079 8.70397 23.0723C8.83745 22.9367 8.94334 22.7757 9.01558 22.5985C9.08782 22.4213 9.125 22.2315 9.125 22.0397V17.6587C9.125 17.2714 9.27645 16.9 9.54603 16.6261C9.81562 16.3523 10.1813 16.1984 10.5625 16.1984H13.4375C13.8187 16.1984 14.1844 16.3523 14.454 16.6261C14.7235 16.9 14.875 17.2714 14.875 17.6587V22.0397C14.875 22.427 15.0265 22.7984 15.296 23.0723C15.5656 23.3461 15.9313 23.5 16.3125 23.5H22.0625C22.4437 23.5 22.8094 23.3461 23.079 23.0723C23.3486 22.7984 23.5 22.427 23.5 22.0397Z" stroke="white" stroke-linecap="round" stroke-linejoin="round"/>
</svg>
