<svg width="29" height="29" viewBox="0 0 29 29" fill="none" xmlns="http://www.w3.org/2000/svg">
<path d="M23.7667 18.0833C23.5947 18.4729 23.5434 18.9051 23.6194 19.3241C23.6954 19.7431 23.8951 20.1297 24.1929 20.4342L24.2704 20.5117C24.5106 20.7516 24.7011 21.0365 24.8312 21.3501C24.9612 21.6637 25.0281 21.9999 25.0281 22.3394C25.0281 22.6789 24.9612 23.015 24.8312 23.3286C24.7011 23.6422 24.5106 23.9272 24.2704 24.1671C24.0305 24.4073 23.7456 24.5978 23.432 24.7278C23.1184 24.8578 22.7822 24.9247 22.4427 24.9247C22.1032 24.9247 21.7671 24.8578 21.4534 24.7278C21.1398 24.5978 20.8549 24.4073 20.615 24.1671L20.5375 24.0896C20.2331 23.7918 19.8464 23.5921 19.4274 23.5161C19.0084 23.4401 18.5763 23.4914 18.1867 23.6633C17.8046 23.8271 17.4788 24.0989 17.2493 24.4455C17.0198 24.792 16.8967 25.1981 16.895 25.6137V25.8333C16.895 26.5185 16.6228 27.1756 16.1384 27.66C15.6539 28.1445 14.9968 28.4167 14.3117 28.4167C13.6265 28.4167 12.9694 28.1445 12.485 27.66C12.0005 27.1756 11.7283 26.5185 11.7283 25.8333V25.7171C11.7183 25.2895 11.5799 24.8749 11.3312 24.5271C11.0824 24.1792 10.7347 23.9143 10.3333 23.7667C9.94375 23.5947 9.51158 23.5434 9.09257 23.6194C8.67356 23.6954 8.28692 23.8951 7.9825 24.1929L7.905 24.2704C7.66508 24.5106 7.38017 24.7011 7.06655 24.8312C6.75294 24.9612 6.41678 25.0281 6.07729 25.0281C5.7378 25.0281 5.40164 24.9612 5.08803 24.8312C4.77442 24.7011 4.48951 24.5106 4.24958 24.2704C4.00939 24.0305 3.81885 23.7456 3.68885 23.432C3.55884 23.1184 3.49193 22.7822 3.49193 22.4427C3.49193 22.1032 3.55884 21.7671 3.68885 21.4534C3.81885 21.1398 4.00939 20.8549 4.24958 20.615L4.32708 20.5375C4.62486 20.2331 4.82461 19.8464 4.90059 19.4274C4.97656 19.0084 4.92527 18.5763 4.75333 18.1867C4.5896 17.8046 4.31773 17.4788 3.97118 17.2493C3.62464 17.0198 3.21856 16.8967 2.80292 16.895H2.58333C1.89819 16.895 1.24111 16.6228 0.756641 16.1384C0.272172 15.6539 0 14.9968 0 14.3117C0 13.6265 0.272172 12.9694 0.756641 12.485C1.24111 12.0005 1.89819 11.7283 2.58333 11.7283H2.69958C3.12712 11.7183 3.54176 11.5799 3.88959 11.3312C4.23743 11.0824 4.50238 10.7347 4.65 10.3333C4.82194 9.94375 4.87323 9.51158 4.79726 9.09257C4.72128 8.67356 4.52153 8.28692 4.22375 7.9825L4.14625 7.905C3.90606 7.66508 3.71552 7.38017 3.58551 7.06655C3.45551 6.75294 3.38859 6.41678 3.38859 6.07729C3.38859 5.7378 3.45551 5.40164 3.58551 5.08803C3.71552 4.77442 3.90606 4.48951 4.14625 4.24958C4.38617 4.00939 4.67108 3.81885 4.9847 3.68885C5.29831 3.55884 5.63447 3.49193 5.97396 3.49193C6.31345 3.49193 6.64961 3.55884 6.96322 3.68885C7.27683 3.81885 7.56174 4.00939 7.80167 4.24958L7.87917 4.32708C8.18359 4.62486 8.57023 4.82461 8.98924 4.90059C9.40825 4.97656 9.84041 4.92527 10.23 4.75333H10.3333C10.7154 4.5896 11.0412 4.31773 11.2707 3.97118C11.5002 3.62464 11.6233 3.21856 11.625 2.80292V2.58333C11.625 1.89819 11.8972 1.24111 12.3816 0.756641C12.8661 0.272172 13.5232 0 14.2083 0C14.8935 0 15.5506 0.272172 16.035 0.756641C16.5195 1.24111 16.7917 1.89819 16.7917 2.58333V2.69958C16.7933 3.11522 16.9165 3.52131 17.146 3.86785C17.3755 4.21439 17.7013 4.48626 18.0833 4.65C18.4729 4.82194 18.9051 4.87323 19.3241 4.79726C19.7431 4.72128 20.1297 4.52153 20.4342 4.22375L20.5117 4.14625C20.7516 3.90606 21.0365 3.71552 21.3501 3.58551C21.6637 3.45551 21.9999 3.38859 22.3394 3.38859C22.6789 3.38859 23.015 3.45551 23.3286 3.58551C23.6422 3.71552 23.9272 3.90606 24.1671 4.14625C24.4073 4.38617 24.5978 4.67108 24.7278 4.9847C24.8578 5.29831 24.9247 5.63447 24.9247 5.97396C24.9247 6.31345 24.8578 6.64961 24.7278 6.96322C24.5978 7.27683 24.4073 7.56174 24.1671 7.80167L24.0896 7.87917C23.7918 8.18359 23.5921 8.57023 23.5161 8.98924C23.4401 9.40825 23.4914 9.84041 23.6633 10.23V10.3333C23.8271 10.7154 24.0989 11.0412 24.4455 11.2707C24.792 11.5002 25.1981 11.6233 25.6137 11.625H25.8333C26.5185 11.625 27.1756 11.8972 27.66 12.3816C28.1445 12.8661 28.4167 13.5232 28.4167 14.2083C28.4167 14.8935 28.1445 15.5506 27.66 16.035C27.1756 16.5195 26.5185 16.7917 25.8333 16.7917H25.7171C25.3014 16.7933 24.8954 16.9165 24.5488 17.146C24.2023 17.3755 23.9304 17.7013 23.7667 18.0833Z" fill="#4B5E61"/>
<path d="M23.7667 18.0833C23.5947 18.4729 23.5434 18.9051 23.6194 19.3241C23.6954 19.7431 23.8951 20.1297 24.1929 20.4342L24.2704 20.5117C24.5106 20.7516 24.7011 21.0365 24.8312 21.3501C24.9612 21.6637 25.0281 21.9999 25.0281 22.3394C25.0281 22.6789 24.9612 23.015 24.8312 23.3286C24.7011 23.6422 24.5106 23.9272 24.2704 24.1671C24.0305 24.4073 23.7456 24.5978 23.432 24.7278C23.1184 24.8578 22.7822 24.9247 22.4427 24.9247C22.1032 24.9247 21.7671 24.8578 21.4534 24.7278C21.1398 24.5978 20.8549 24.4073 20.615 24.1671L20.5375 24.0896C20.2331 23.7918 19.8464 23.5921 19.4274 23.5161C19.0084 23.4401 18.5763 23.4914 18.1867 23.6633C17.8046 23.8271 17.4788 24.0989 17.2493 24.4455C17.0198 24.792 16.8967 25.1981 16.895 25.6137V25.8333C16.895 26.5185 16.6228 27.1756 16.1384 27.66C15.6539 28.1445 14.9968 28.4167 14.3117 28.4167C13.6265 28.4167 12.9694 28.1445 12.485 27.66C12.0005 27.1756 11.7283 26.5185 11.7283 25.8333V25.7171C11.7183 25.2895 11.5799 24.8749 11.3312 24.5271C11.0824 24.1792 10.7347 23.9143 10.3333 23.7667C9.94375 23.5947 9.51158 23.5434 9.09257 23.6194C8.67356 23.6954 8.28692 23.8951 7.9825 24.1929L7.905 24.2704C7.66508 24.5106 7.38017 24.7011 7.06655 24.8312C6.75294 24.9612 6.41678 25.0281 6.07729 25.0281C5.7378 25.0281 5.40164 24.9612 5.08803 24.8312C4.77442 24.7011 4.48951 24.5106 4.24958 24.2704C4.00939 24.0305 3.81885 23.7456 3.68885 23.432C3.55884 23.1184 3.49193 22.7822 3.49193 22.4427C3.49193 22.1032 3.55884 21.7671 3.68885 21.4534C3.81885 21.1398 4.00939 20.8549 4.24958 20.615L4.32708 20.5375C4.62486 20.2331 4.82461 19.8464 4.90059 19.4274C4.97656 19.0084 4.92527 18.5763 4.75333 18.1867C4.5896 17.8046 4.31773 17.4788 3.97118 17.2493C3.62464 17.0198 3.21856 16.8967 2.80292 16.895H2.58333C1.89819 16.895 1.24111 16.6228 0.756641 16.1384C0.272172 15.6539 0 14.9968 0 14.3117C0 13.6265 0.272172 12.9694 0.756641 12.485C1.24111 12.0005 1.89819 11.7283 2.58333 11.7283H2.69958C3.12712 11.7183 3.54176 11.5799 3.88959 11.3312C4.23743 11.0824 4.50238 10.7347 4.65 10.3333C4.82194 9.94375 4.87323 9.51158 4.79726 9.09257C4.72128 8.67356 4.52153 8.28692 4.22375 7.9825L4.14625 7.905C3.90606 7.66508 3.71552 7.38017 3.58551 7.06655C3.45551 6.75294 3.38859 6.41678 3.38859 6.07729C3.38859 5.7378 3.45551 5.40164 3.58551 5.08803C3.71552 4.77442 3.90606 4.48951 4.14625 4.24958C4.38617 4.00939 4.67108 3.81885 4.9847 3.68885C5.29831 3.55884 5.63447 3.49193 5.97396 3.49193C6.31345 3.49193 6.64961 3.55884 6.96322 3.68885C7.27683 3.81885 7.56174 4.00939 7.80167 4.24958L7.87917 4.32708C8.18359 4.62486 8.57023 4.82461 8.98924 4.90059C9.40825 4.97656 9.84041 4.92527 10.23 4.75333H10.3333C10.7154 4.5896 11.0412 4.31773 11.2707 3.97118C11.5002 3.62464 11.6233 3.21856 11.625 2.80292V2.58333C11.625 1.89819 11.8972 1.24111 12.3816 0.756641C12.8661 0.272172 13.5232 0 14.2083 0C14.8935 0 15.5506 0.272172 16.035 0.756641C16.5195 1.24111 16.7917 1.89819 16.7917 2.58333V2.69958C16.7933 3.11522 16.9165 3.52131 17.146 3.86785C17.3755 4.21439 17.7013 4.48626 18.0833 4.65C18.4729 4.82194 18.9051 4.87323 19.3241 4.79726C19.7431 4.72128 20.1297 4.52153 20.4342 4.22375L20.5117 4.14625C20.7516 3.90606 21.0365 3.71552 21.3501 3.58551C21.6637 3.45551 21.9999 3.38859 22.3394 3.38859C22.6789 3.38859 23.015 3.45551 23.3286 3.58551C23.6422 3.71552 23.9272 3.90606 24.1671 4.14625C24.4073 4.38617 24.5978 4.67108 24.7278 4.9847C24.8578 5.29831 24.9247 5.63447 24.9247 5.97396C24.9247 6.31345 24.8578 6.64961 24.7278 6.96322C24.5978 7.27683 24.4073 7.56174 24.1671 7.80167L24.0896 7.87917C23.7918 8.18359 23.5921 8.57023 23.5161 8.98924C23.4401 9.40825 23.4914 9.84041 23.6633 10.23V10.3333C23.8271 10.7154 24.0989 11.0412 24.4455 11.2707C24.792 11.5002 25.1981 11.6233 25.6137 11.625H25.8333C26.5185 11.625 27.1756 11.8972 27.66 12.3816C28.1445 12.8661 28.4167 13.5232 28.4167 14.2083C28.4167 14.8935 28.1445 15.5506 27.66 16.035C27.1756 16.5195 26.5185 16.7917 25.8333 16.7917H25.7171C25.3014 16.7933 24.8954 16.9165 24.5488 17.146C24.2023 17.3755 23.9304 17.7013 23.7667 18.0833Z" fill="#B8B8B8"/>
<path d="M23.7667 18.0833C23.5947 18.4729 23.5434 18.9051 23.6194 19.3241C23.6954 19.7431 23.8951 20.1297 24.1929 20.4342L24.2704 20.5117C24.5106 20.7516 24.7011 21.0365 24.8312 21.3501C24.9612 21.6637 25.0281 21.9999 25.0281 22.3394C25.0281 22.6789 24.9612 23.015 24.8312 23.3286C24.7011 23.6422 24.5106 23.9272 24.2704 24.1671C24.0305 24.4073 23.7456 24.5978 23.432 24.7278C23.1184 24.8578 22.7822 24.9247 22.4427 24.9247C22.1032 24.9247 21.7671 24.8578 21.4534 24.7278C21.1398 24.5978 20.8549 24.4073 20.615 24.1671L20.5375 24.0896C20.2331 23.7918 19.8464 23.5921 19.4274 23.5161C19.0084 23.4401 18.5763 23.4914 18.1867 23.6633C17.8046 23.8271 17.4788 24.0989 17.2493 24.4455C17.0198 24.792 16.8967 25.1981 16.895 25.6137V25.8333C16.895 26.5185 16.6228 27.1756 16.1384 27.66C15.6539 28.1445 14.9968 28.4167 14.3117 28.4167C13.6265 28.4167 12.9694 28.1445 12.485 27.66C12.0005 27.1756 11.7283 26.5185 11.7283 25.8333V25.7171C11.7183 25.2895 11.5799 24.8749 11.3312 24.5271C11.0824 24.1792 10.7347 23.9143 10.3333 23.7667C9.94375 23.5947 9.51158 23.5434 9.09257 23.6194C8.67356 23.6954 8.28692 23.8951 7.9825 24.1929L7.905 24.2704C7.66508 24.5106 7.38017 24.7011 7.06655 24.8312C6.75294 24.9612 6.41678 25.0281 6.07729 25.0281C5.7378 25.0281 5.40164 24.9612 5.08803 24.8312C4.77442 24.7011 4.48951 24.5106 4.24958 24.2704C4.00939 24.0305 3.81885 23.7456 3.68885 23.432C3.55884 23.1184 3.49193 22.7822 3.49193 22.4427C3.49193 22.1032 3.55884 21.7671 3.68885 21.4534C3.81885 21.1398 4.00939 20.8549 4.24958 20.615L4.32708 20.5375C4.62486 20.2331 4.82461 19.8464 4.90059 19.4274C4.97656 19.0084 4.92527 18.5763 4.75333 18.1867C4.5896 17.8046 4.31773 17.4788 3.97118 17.2493C3.62464 17.0198 3.21856 16.8967 2.80292 16.895H2.58333C1.89819 16.895 1.24111 16.6228 0.756641 16.1384C0.272172 15.6539 0 14.9968 0 14.3117C0 13.6265 0.272172 12.9694 0.756641 12.485C1.24111 12.0005 1.89819 11.7283 2.58333 11.7283H2.69958C3.12712 11.7183 3.54176 11.5799 3.88959 11.3312C4.23743 11.0824 4.50238 10.7347 4.65 10.3333C4.82194 9.94375 4.87323 9.51158 4.79726 9.09257C4.72128 8.67356 4.52153 8.28692 4.22375 7.9825L4.14625 7.905C3.90606 7.66508 3.71552 7.38017 3.58551 7.06655C3.45551 6.75294 3.38859 6.41678 3.38859 6.07729C3.38859 5.7378 3.45551 5.40164 3.58551 5.08803C3.71552 4.77442 3.90606 4.48951 4.14625 4.24958C4.38617 4.00939 4.67108 3.81885 4.9847 3.68885C5.29831 3.55884 5.63447 3.49193 5.97396 3.49193C6.31345 3.49193 6.64961 3.55884 6.96322 3.68885C7.27683 3.81885 7.56174 4.00939 7.80167 4.24958L7.87917 4.32708C8.18359 4.62486 8.57023 4.82461 8.98924 4.90059C9.40825 4.97656 9.84041 4.92527 10.23 4.75333H10.3333C10.7154 4.5896 11.0412 4.31773 11.2707 3.97118C11.5002 3.62464 11.6233 3.21856 11.625 2.80292V2.58333C11.625 1.89819 11.8972 1.24111 12.3816 0.756641C12.8661 0.272172 13.5232 0 14.2083 0C14.8935 0 15.5506 0.272172 16.035 0.756641C16.5195 1.24111 16.7917 1.89819 16.7917 2.58333V2.69958C16.7933 3.11522 16.9165 3.52131 17.146 3.86785C17.3755 4.21439 17.7013 4.48626 18.0833 4.65C18.4729 4.82194 18.9051 4.87323 19.3241 4.79726C19.7431 4.72128 20.1297 4.52153 20.4342 4.22375L20.5117 4.14625C20.7516 3.90606 21.0365 3.71552 21.3501 3.58551C21.6637 3.45551 21.9999 3.38859 22.3394 3.38859C22.6789 3.38859 23.015 3.45551 23.3286 3.58551C23.6422 3.71552 23.9272 3.90606 24.1671 4.14625C24.4073 4.38617 24.5978 4.67108 24.7278 4.9847C24.8578 5.29831 24.9247 5.63447 24.9247 5.97396C24.9247 6.31345 24.8578 6.64961 24.7278 6.96322C24.5978 7.27683 24.4073 7.56174 24.1671 7.80167L24.0896 7.87917C23.7918 8.18359 23.5921 8.57023 23.5161 8.98924C23.4401 9.40825 23.4914 9.84041 23.6633 10.23V10.3333C23.8271 10.7154 24.0989 11.0412 24.4455 11.2707C24.792 11.5002 25.1981 11.6233 25.6137 11.625H25.8333C26.5185 11.625 27.1756 11.8972 27.66 12.3816C28.1445 12.8661 28.4167 13.5232 28.4167 14.2083C28.4167 14.8935 28.1445 15.5506 27.66 16.035C27.1756 16.5195 26.5185 16.7917 25.8333 16.7917H25.7171C25.3014 16.7933 24.8954 16.9165 24.5488 17.146C24.2023 17.3755 23.9304 17.7013 23.7667 18.0833Z" fill="#C1D1D5"/>
<path d="M14.207 18.0859C16.3471 18.0859 18.082 16.351 18.082 14.2109C18.082 12.0708 16.3471 10.3359 14.207 10.3359C12.0669 10.3359 10.332 12.0708 10.332 14.2109C10.332 16.351 12.0669 18.0859 14.207 18.0859Z" fill="white"/>
</svg>
