<svg width="25" height="25" viewBox="0 0 25 25" fill="none" xmlns="http://www.w3.org/2000/svg">
<path fill-rule="evenodd" clip-rule="evenodd" d="M12.9905 0.793847C13.4988 0.285555 14.1882 0 14.907 0H22.2896C23.7865 0 25 1.21347 25 2.71036V10.093C25 10.8118 24.7145 11.5012 24.2062 12.0095L12.0095 24.2062C10.9511 25.2647 9.23496 25.2647 8.17649 24.2062L0.793848 16.8235C-0.264618 15.765 -0.264614 14.0489 0.793848 12.9905L12.9905 0.793847ZM18.2241 4.969C19.222 4.969 20.031 5.77797 20.031 6.77591C20.031 7.77383 19.222 8.58282 18.2241 8.58282C17.2262 8.58282 16.4172 7.77383 16.4172 6.77591C16.4172 5.77797 17.2262 4.969 18.2241 4.969Z" fill="url(#paint0_linear_2295_4388)"/>
<path fill-rule="evenodd" clip-rule="evenodd" d="M12.9905 0.793847C13.4988 0.285555 14.1882 0 14.907 0H22.2896C23.7865 0 25 1.21347 25 2.71036V10.093C25 10.8118 24.7145 11.5012 24.2062 12.0095L12.0095 24.2062C10.9511 25.2647 9.23496 25.2647 8.17649 24.2062L0.793848 16.8235C-0.264618 15.765 -0.264614 14.0489 0.793848 12.9905L12.9905 0.793847ZM18.2241 4.969C19.222 4.969 20.031 5.77797 20.031 6.77591C20.031 7.77383 19.222 8.58282 18.2241 8.58282C17.2262 8.58282 16.4172 7.77383 16.4172 6.77591C16.4172 5.77797 17.2262 4.969 18.2241 4.969Z" fill="#4B5E61"/>
<path fill-rule="evenodd" clip-rule="evenodd" d="M12.9905 0.793847C13.4988 0.285555 14.1882 0 14.907 0H22.2896C23.7865 0 25 1.21347 25 2.71036V10.093C25 10.8118 24.7145 11.5012 24.2062 12.0095L12.0095 24.2062C10.9511 25.2647 9.23496 25.2647 8.17649 24.2062L0.793848 16.8235C-0.264618 15.765 -0.264614 14.0489 0.793848 12.9905L12.9905 0.793847ZM18.2241 4.969C19.222 4.969 20.031 5.77797 20.031 6.77591C20.031 7.77383 19.222 8.58282 18.2241 8.58282C17.2262 8.58282 16.4172 7.77383 16.4172 6.77591C16.4172 5.77797 17.2262 4.969 18.2241 4.969Z" fill="#B8B8B8"/>
<path fill-rule="evenodd" clip-rule="evenodd" d="M12.9905 0.793847C13.4988 0.285555 14.1882 0 14.907 0H22.2896C23.7865 0 25 1.21347 25 2.71036V10.093C25 10.8118 24.7145 11.5012 24.2062 12.0095L12.0095 24.2062C10.9511 25.2647 9.23496 25.2647 8.17649 24.2062L0.793848 16.8235C-0.264618 15.765 -0.264614 14.0489 0.793848 12.9905L12.9905 0.793847ZM18.2241 4.969C19.222 4.969 20.031 5.77797 20.031 6.77591C20.031 7.77383 19.222 8.58282 18.2241 8.58282C17.2262 8.58282 16.4172 7.77383 16.4172 6.77591C16.4172 5.77797 17.2262 4.969 18.2241 4.969Z" fill="#C1D1D5"/>
<defs>
<linearGradient id="paint0_linear_2295_4388" x1="25.0614" y1="25.0403" x2="8.42703" y2="-4.56233" gradientUnits="userSpaceOnUse">
<stop stop-color="#FF51E3"/>
<stop offset="1" stop-color="#1B4DFF"/>
</linearGradient>
</defs>
</svg>
