<svg width="49" height="25" viewBox="0 0 49 25" fill="none" xmlns="http://www.w3.org/2000/svg">
<path d="M47.5 12.5C47.5 15.2309 45.2602 17.9724 41.0233 20.0909C36.8463 22.1794 31.0058 23.5 24.5 23.5C17.9942 23.5 12.1537 22.1794 7.97665 20.0909C3.73981 17.9724 1.5 15.2309 1.5 12.5C1.5 9.76912 3.73981 7.02757 7.97665 4.90915C12.1537 2.82063 17.9942 1.5 24.5 1.5C31.0058 1.5 36.8463 2.82063 41.0233 4.90915C45.2602 7.02757 47.5 9.76912 47.5 12.5Z" fill="url(#paint0_linear_1381_2242)" stroke="url(#paint1_linear_1381_2242)" stroke-width="2"/>
<defs>
<linearGradient id="paint0_linear_1381_2242" x1="0.5" y1="0.5" x2="18.8132" y2="47.3668" gradientUnits="userSpaceOnUse">
<stop stop-color="#F0E3D0"/>
<stop offset="1" stop-color="#D5C8B4"/>
</linearGradient>
<linearGradient id="paint1_linear_1381_2242" x1="0.5" y1="0.5" x2="14.802" y2="37.9002" gradientUnits="userSpaceOnUse">
<stop stop-color="#F1E5D2"/>
<stop offset="1" stop-color="#C6B7A0"/>
</linearGradient>
</defs>
</svg>
