<svg width="25" height="25" viewBox="0 0 25 25" fill="none" xmlns="http://www.w3.org/2000/svg">
<mask id="path-1-inside-1_1381_2252" fill="white">
<path fill-rule="evenodd" clip-rule="evenodd" d="M7.52943 24.5L0.5 17.4706V7.52943L7.52943 0.5H17.4706L24.5 7.52944V17.4706L17.4706 24.5H7.52943Z"/>
</mask>
<path fill-rule="evenodd" clip-rule="evenodd" d="M7.52943 24.5L0.5 17.4706V7.52943L7.52943 0.5H17.4706L24.5 7.52944V17.4706L17.4706 24.5H7.52943Z" fill="url(#paint0_linear_1381_2252)"/>
<path d="M7.52943 24.5L6.11522 25.9142L6.70101 26.5H7.52943V24.5ZM0.5 17.4706H-1.5V18.299L-0.914214 18.8848L0.5 17.4706ZM0.5 7.52943L-0.914214 6.11522L-1.5 6.70101V7.52943H0.5ZM7.52943 0.5V-1.5H6.70101L6.11522 -0.914214L7.52943 0.5ZM17.4706 0.5L18.8848 -0.914214L18.299 -1.5H17.4706V0.5ZM24.5 7.52944H26.5V6.70101L25.9142 6.11523L24.5 7.52944ZM24.5 17.4706L25.9142 18.8848L26.5 18.299V17.4706H24.5ZM17.4706 24.5V26.5H18.299L18.8848 25.9142L17.4706 24.5ZM8.94365 23.0858L1.91421 16.0564L-0.914214 18.8848L6.11522 25.9142L8.94365 23.0858ZM2.5 17.4706V7.52943H-1.5V17.4706H2.5ZM1.91421 8.94365L8.94365 1.91421L6.11522 -0.914214L-0.914214 6.11522L1.91421 8.94365ZM7.52943 2.5H17.4706V-1.5H7.52943V2.5ZM16.0563 1.91421L23.0858 8.94366L25.9142 6.11523L18.8848 -0.914214L16.0563 1.91421ZM22.5 7.52944V17.4706H26.5V7.52944H22.5ZM23.0858 16.0563L16.0563 23.0858L18.8848 25.9142L25.9142 18.8848L23.0858 16.0563ZM17.4706 22.5H7.52943V26.5H17.4706V22.5Z" fill="url(#paint1_linear_1381_2252)" mask="url(#path-1-inside-1_1381_2252)"/>
<defs>
<linearGradient id="paint0_linear_1381_2252" x1="0.5" y1="0.26" x2="24.5" y2="25.94" gradientUnits="userSpaceOnUse">
<stop stop-color="#F0E3D0"/>
<stop offset="1" stop-color="#D5C8B4"/>
</linearGradient>
<linearGradient id="paint1_linear_1381_2252" x1="0.499999" y1="-1.18" x2="24.5" y2="28.82" gradientUnits="userSpaceOnUse">
<stop stop-color="#F1E5D2"/>
<stop offset="1" stop-color="#C6B7A0"/>
</linearGradient>
</defs>
</svg>
