<svg width="25" height="25" viewBox="0 0 25 25" fill="none" xmlns="http://www.w3.org/2000/svg">
<rect x="0.5" y="0.5" width="24" height="24" rx="8" fill="#EBEBEB"/>
<path d="M11.1465 15.1351V15.0137C11.155 14.221 11.2338 13.5904 11.383 13.1216C11.5364 12.6529 11.7537 12.2736 12.035 11.9838C12.3162 11.6941 12.655 11.4299 13.0513 11.1912C13.307 11.0293 13.5371 10.8482 13.7417 10.6479C13.9462 10.4476 14.1081 10.2175 14.2275 9.95755C14.3468 9.69761 14.4064 9.40997 14.4064 9.09463C14.4064 8.71537 14.3169 8.38724 14.138 8.11025C13.959 7.83326 13.7203 7.62019 13.4221 7.47105C13.128 7.31764 12.7999 7.24093 12.4377 7.24093C12.1096 7.24093 11.7963 7.30911 11.498 7.44548C11.1998 7.58184 10.9526 7.79491 10.7566 8.08468C10.5605 8.37019 10.4476 8.7388 10.4178 9.19051H8.47461C8.50444 8.42346 8.69833 7.77573 9.05629 7.24733C9.41424 6.71465 9.88725 6.31196 10.4753 6.03923C11.0676 5.7665 11.7218 5.63014 12.4377 5.63014C13.2218 5.63014 13.9078 5.77715 14.4959 6.07119C15.084 6.36096 15.54 6.76792 15.8638 7.29207C16.1919 7.81196 16.356 8.4192 16.356 9.1138C16.356 9.59108 16.2814 10.0215 16.1323 10.405C15.9831 10.7843 15.7701 11.123 15.4931 11.4213C15.2203 11.7196 14.8922 11.9838 14.5087 12.2139C14.1465 12.4398 13.8525 12.6742 13.6266 12.9171C13.405 13.16 13.2431 13.4476 13.1408 13.78C13.0385 14.1124 12.9831 14.5236 12.9746 15.0137V15.1351H11.1465ZM12.1117 19.0215C11.7623 19.0215 11.4618 18.8979 11.2104 18.6507C10.959 18.3993 10.8333 18.0968 10.8333 17.7431C10.8333 17.3936 10.959 17.0953 11.2104 16.8482C11.4618 16.5968 11.7623 16.471 12.1117 16.471C12.4569 16.471 12.7551 16.5968 13.0066 16.8482C13.2623 17.0953 13.3901 17.3936 13.3901 17.7431C13.3901 17.9774 13.3304 18.1926 13.2111 18.3887C13.0961 18.5804 12.9426 18.7338 12.7509 18.8489C12.5591 18.9639 12.3461 19.0215 12.1117 19.0215Z" fill="#C4C4C4"/>
</svg>
