<svg width="21" height="17" viewBox="0 0 21 17" fill="none" xmlns="http://www.w3.org/2000/svg">
<path fill-rule="evenodd" clip-rule="evenodd" d="M20.7369 14.0714C20.7369 15.2985 19.7421 16.2932 18.5151 16.2932H2.22181C0.994737 16.2932 0 15.2985 0 14.0714V2.22181C0 0.994732 0.994737 0 2.22181 0H18.5151C19.7421 0 20.7369 0.994732 20.7369 2.22181V14.0714ZM16.247 5.13519C16.247 6.33524 15.2743 7.30807 14.0742 7.30807C12.8742 7.30807 11.9013 6.33524 11.9013 5.13519C11.9013 3.93515 12.8742 2.96232 14.0742 2.96232C15.2743 2.96232 16.247 3.93515 16.247 5.13519ZM2.90008 7.72267C5.2164 7.6703 7.47599 8.44261 9.27567 9.90181C10.841 11.171 11.9698 12.888 12.5186 14.812H2.22181C1.81279 14.812 1.4812 14.4804 1.4812 14.0714V7.81273C1.94518 7.75166 2.41293 7.72162 2.88134 7.72287L2.90008 7.72267ZM14.0509 14.812H18.5152C18.9243 14.812 19.2558 14.4804 19.2558 14.0714V11.5667C18.3195 11.3018 17.3502 11.1674 16.3755 11.1679H16.3735C15.1588 11.1653 13.9544 11.3697 12.8115 11.7707C13.3681 12.7133 13.7873 13.7373 14.0509 14.812Z" fill="white"/>
</svg>
