<svg width="20" height="16" viewBox="0 0 20 16" fill="none" xmlns="http://www.w3.org/2000/svg">
<path fill-rule="evenodd" clip-rule="evenodd" d="M7.19033 0.0623686C8.81228 -0.0207895 10.4377 -0.0207895 12.0597 0.0623686C12.9461 0.107869 13.7372 0.574244 14.1973 1.27862L14.9499 2.43099C15.1699 2.76612 15.5412 2.99362 15.9674 3.05224C16.3213 3.09949 16.6733 3.15112 17.0234 3.20712C18.3361 3.41624 19.25 4.51349 19.25 5.75249V13.1252C19.25 13.8214 18.9603 14.4891 18.4445 14.9814C17.9288 15.4737 17.2293 15.7502 16.5 15.7502H2.75C2.02065 15.7502 1.32118 15.4737 0.805456 14.9814C0.289731 14.4891 0 13.8214 0 13.1252V5.75249C0 4.51349 0.913917 3.41624 2.22658 3.20712C2.57675 3.15112 2.92875 3.09949 3.28167 3.05137C3.48848 3.02495 3.68673 2.95564 3.8625 2.84832C4.03828 2.741 4.18732 2.59826 4.29917 2.43012L5.05267 1.27949C5.28046 0.92779 5.59365 0.633639 5.96574 0.421932C6.33784 0.210225 6.75788 0.0863167 7.19033 0.0623686ZM4.8125 8.53149C4.8125 7.31316 5.31953 6.14472 6.22205 5.28322C7.12457 4.42173 8.34865 3.93774 9.625 3.93774C10.9014 3.93774 12.1254 4.42173 13.028 5.28322C13.9305 6.14472 14.4375 7.31316 14.4375 8.53149C14.4375 9.74983 13.9305 10.9183 13.028 11.7798C12.1254 12.6413 10.9014 13.1252 9.625 13.1252C8.34865 13.1252 7.12457 12.6413 6.22205 11.7798C5.31953 10.9183 4.8125 9.74983 4.8125 8.53149ZM15.8125 7.21899C15.9948 7.21899 16.1697 7.14985 16.2986 7.02678C16.4276 6.90371 16.5 6.73679 16.5 6.56274C16.5 6.3887 16.4276 6.22178 16.2986 6.0987C16.1697 5.97563 15.9948 5.90649 15.8125 5.90649C15.6302 5.90649 15.4553 5.97563 15.3264 6.0987C15.1974 6.22178 15.125 6.3887 15.125 6.56274C15.125 6.73679 15.1974 6.90371 15.3264 7.02678C15.4553 7.14985 15.6302 7.21899 15.8125 7.21899Z" fill="white"/>
</svg>
