<svg width="2" height="13" viewBox="0 0 2 13" fill="none" xmlns="http://www.w3.org/2000/svg">
<path d="M1.75955 -0.0012846L1.51066 8.74538H0.426215L0.177326 -0.0012846H1.75955ZM0.959549 12.5676C0.686956 12.5676 0.455845 12.4787 0.266215 12.3009C0.0884376 12.1113 -0.000451326 11.8861 -0.000451326 11.6254C-0.000451326 11.3528 0.0884376 11.1276 0.266215 10.9498C0.455845 10.772 0.686956 10.6832 0.959549 10.6832C1.24399 10.6832 1.48103 10.772 1.67066 10.9498C1.86029 11.1276 1.9551 11.3528 1.9551 11.6254C1.9551 11.8861 1.86029 12.1113 1.67066 12.3009C1.48103 12.4787 1.24399 12.5676 0.959549 12.5676Z" fill="white"/>
</svg>
