<svg width="23" height="23" viewBox="0 0 23 23" fill="none" xmlns="http://www.w3.org/2000/svg">
<path d="M22.1945 20.2775L17.0848 15.1678C18.3149 13.53 18.9791 11.5367 18.9768 9.48846C18.9768 4.25653 14.7203 0 9.48841 0C4.25653 0 0 4.25653 0 9.48846C0 14.7203 4.25653 18.9769 9.48841 18.9769C11.5367 18.9791 13.53 18.315 15.1678 17.0848L20.2774 22.1945C20.5361 22.4257 20.8735 22.5491 21.2203 22.5395C21.5671 22.5297 21.897 22.3876 22.1423 22.1423C22.3876 21.897 22.5297 21.5671 22.5394 21.2203C22.5491 20.8735 22.4257 20.5362 22.1945 20.2775ZM2.71093 9.48846C2.71093 8.14799 3.1084 6.83761 3.85317 5.72307C4.59789 4.60858 5.65637 3.7399 6.89478 3.22685C8.13318 2.7139 9.49589 2.57969 10.8106 2.84122C12.1253 3.1027 13.3329 3.74814 14.2808 4.69603C15.2286 5.64391 15.8741 6.85151 16.1356 8.16625C16.3971 9.48089 16.2629 10.8436 15.7499 12.082C15.2369 13.3205 14.3682 14.3789 13.2537 15.1237C12.1392 15.8684 10.8289 16.2658 9.48841 16.2658C7.69158 16.2637 5.96898 15.549 4.69837 14.2784C3.42786 13.0078 2.71309 11.2852 2.71093 9.48846Z" fill="#3BCBFA"/>
<path d="M22.1945 20.2775L17.0848 15.1678C18.3149 13.53 18.9791 11.5367 18.9768 9.48846C18.9768 4.25653 14.7203 0 9.48841 0C4.25653 0 0 4.25653 0 9.48846C0 14.7203 4.25653 18.9769 9.48841 18.9769C11.5367 18.9791 13.53 18.315 15.1678 17.0848L20.2774 22.1945C20.5361 22.4257 20.8735 22.5491 21.2203 22.5395C21.5671 22.5297 21.897 22.3876 22.1423 22.1423C22.3876 21.897 22.5297 21.5671 22.5394 21.2203C22.5491 20.8735 22.4257 20.5362 22.1945 20.2775ZM2.71093 9.48846C2.71093 8.14799 3.1084 6.83761 3.85317 5.72307C4.59789 4.60858 5.65637 3.7399 6.89478 3.22685C8.13318 2.7139 9.49589 2.57969 10.8106 2.84122C12.1253 3.1027 13.3329 3.74814 14.2808 4.69603C15.2286 5.64391 15.8741 6.85151 16.1356 8.16625C16.3971 9.48089 16.2629 10.8436 15.7499 12.082C15.2369 13.3205 14.3682 14.3789 13.2537 15.1237C12.1392 15.8684 10.8289 16.2658 9.48841 16.2658C7.69158 16.2637 5.96898 15.549 4.69837 14.2784C3.42786 13.0078 2.71309 11.2852 2.71093 9.48846Z" fill="#C1C2D5"/>
<path d="M22.1945 20.2775L17.0848 15.1678C18.3149 13.53 18.9791 11.5367 18.9768 9.48846C18.9768 4.25653 14.7203 0 9.48841 0C4.25653 0 0 4.25653 0 9.48846C0 14.7203 4.25653 18.9769 9.48841 18.9769C11.5367 18.9791 13.53 18.315 15.1678 17.0848L20.2774 22.1945C20.5361 22.4257 20.8735 22.5491 21.2203 22.5395C21.5671 22.5297 21.897 22.3876 22.1423 22.1423C22.3876 21.897 22.5297 21.5671 22.5394 21.2203C22.5491 20.8735 22.4257 20.5362 22.1945 20.2775ZM2.71093 9.48846C2.71093 8.14799 3.1084 6.83761 3.85317 5.72307C4.59789 4.60858 5.65637 3.7399 6.89478 3.22685C8.13318 2.7139 9.49589 2.57969 10.8106 2.84122C12.1253 3.1027 13.3329 3.74814 14.2808 4.69603C15.2286 5.64391 15.8741 6.85151 16.1356 8.16625C16.3971 9.48089 16.2629 10.8436 15.7499 12.082C15.2369 13.3205 14.3682 14.3789 13.2537 15.1237C12.1392 15.8684 10.8289 16.2658 9.48841 16.2658C7.69158 16.2637 5.96898 15.549 4.69837 14.2784C3.42786 13.0078 2.71309 11.2852 2.71093 9.48846Z" fill="#182729"/>
</svg>
